<svg xmlns="http://www.w3.org/2000/svg" width="16.933" height="15.293" viewBox="0 0 16.933 15.293"><path d="M16.094,1.373a4.284,4.284,0,0,0-3.147-1.3,4.41,4.41,0,0,0-3.184,1.3L1.45,9.725a3.225,3.225,0,0,0,0,4.653,3.14,3.14,0,0,0,2.288.992,3.1,3.1,0,0,0,2.25-.992l8.39-8.39a1.886,1.886,0,0,0,.572-1.449,2.279,2.279,0,0,0-.572-1.488,1.98,1.98,0,0,0-1.449-.61,1.742,1.742,0,0,0-1.373.61L3.814,10.792a.715.715,0,0,0,0,1.144.689.689,0,0,0,1.144,0l7.627-7.742a.373.373,0,0,1,.572,0,.373.373,0,0,1,0,.572l-8.275,8.39a1.567,1.567,0,0,1-2.288,0,1.567,1.567,0,0,1,0-2.288l8.276-8.352a2.819,2.819,0,0,1,2.06-.877,2.7,2.7,0,0,1,2.021.877,2.733,2.733,0,0,1,.839,2,2.86,2.86,0,0,1-.839,2.04l-7.17,7.17a.746.746,0,0,0,0,1.144.746.746,0,0,0,1.144,0l7.17-7.17a4.389,4.389,0,0,0,1.3-3.166,4.389,4.389,0,0,0-1.3-3.166Z" transform="translate(-0.458 -0.076)" fill="#17203f"/></svg>