<svg xmlns="http://www.w3.org/2000/svg" width="20" height="18.182" viewBox="0 0 20 18.182"><path d="M5.277,3.555,4,2.264C1,5.239,1,7.4,1,10.182h.909l.909-.057C2.818,7.463,2.818,6,5.277,3.555ZM18,2.264l-1.28,1.291C19.182,6,19.182,7.463,19.182,10.182L21,10.125c0-2.729,0-4.885-3-7.861ZM11,20.182a2.709,2.709,0,0,0,2.562-1.818H8.438A2.709,2.709,0,0,0,11,20.182Zm6.364-6.74V9.273a6.369,6.369,0,0,0-4.677-6.129,1.815,1.815,0,0,0-3.373,0A6.368,6.368,0,0,0,4.636,9.273v4.169L3.085,14.994a.905.905,0,0,0-.266.643v.909a.909.909,0,0,0,.909.909H18.273a.909.909,0,0,0,.909-.909v-.909a.905.905,0,0,0-.266-.643Z" transform="translate(-1 -2)" fill="#a8b0c9"/></svg>