<svg xmlns="http://www.w3.org/2000/svg" width="20" height="20" viewBox="0 0 20 20"><path d="M5,.625a.625.625,0,1,0-1.25,0V1.25H2.5A2.5,2.5,0,0,0,0,3.75V17.5A2.5,2.5,0,0,0,2.5,20h15A2.5,2.5,0,0,0,20,17.5V3.75a2.5,2.5,0,0,0-2.5-2.5H16.25V.625a.625.625,0,1,0-1.25,0V1.25H5ZM2.5,4.375a.625.625,0,0,1,.625-.625h13.75a.625.625,0,0,1,.625.625v1.25a.625.625,0,0,1-.625.625H3.125A.625.625,0,0,1,2.5,5.625ZM10.625,8.75A.625.625,0,0,0,10,9.375v1.25a.625.625,0,0,0,.625.625h1.25a.625.625,0,0,0,.625-.625V9.375a.625.625,0,0,0-.625-.625Zm3.75,0a.625.625,0,0,0-.625.625v1.25a.625.625,0,0,0,.625.625h1.25a.625.625,0,0,0,.625-.625V9.375a.625.625,0,0,0-.625-.625ZM3.75,13.125a.625.625,0,0,1,.625-.625h1.25a.625.625,0,0,1,.625.625v1.25A.625.625,0,0,1,5.625,15H4.375a.625.625,0,0,1-.625-.625ZM8.125,12.5a.625.625,0,0,0-.625.625v1.25A.625.625,0,0,0,8.125,15h1.25A.625.625,0,0,0,10,14.375v-1.25a.625.625,0,0,0-.625-.625Z" transform="translate(0)" fill="#a8b0c9" fill-rule="evenodd"/></svg>