<svg xmlns="http://www.w3.org/2000/svg" width="14.255" height="15.839" viewBox="0 0 14.255 15.839"><path d="M8.46,4.584H14.8V3h1.584V4.584h.792a1.584,1.584,0,0,1,1.584,1.584V17.255a1.584,1.584,0,0,1-1.584,1.584H6.084A1.584,1.584,0,0,1,4.5,17.255V6.168A1.584,1.584,0,0,1,6.084,4.584h.792V3H8.46ZM6.084,7.752v9.5H17.171v-9.5Zm1.584,2.376H9.252v1.584H7.668Zm3.168,0h1.584v1.584H10.836Zm3.168,0h1.584v1.584H14ZM14,13.3h1.584v1.584H14Zm-3.168,0h1.584v1.584H10.836Zm-3.168,0H9.252v1.584H7.668Z" transform="translate(-4.5 -3)" fill="#82879b" fill-rule="evenodd"/></svg>