<svg xmlns="http://www.w3.org/2000/svg" width="20" height="22.24" viewBox="0 0 20 22.24"><path d="M7.031,18.091l-1.2-1.2,2.708-2.708L5.833,11.476l1.2-1.2L9.74,12.986l2.708-2.708,1.146,1.2-2.708,2.708,2.708,2.708-1.146,1.2L9.74,15.382ZM17.76,2.518A2.223,2.223,0,0,1,20,4.757V20.279a2.222,2.222,0,0,1-2.24,2.239H2.24a2.161,2.161,0,0,1-1.588-.651A2.165,2.165,0,0,1,0,20.278V4.757A2.161,2.161,0,0,1,.651,3.169,2.165,2.165,0,0,1,2.24,2.518H3.334V.278h2.24v2.24h8.854V.278h2.24v2.24h1.094Zm0,17.76V8.09H2.24V20.278H17.761Z" transform="translate(0 -0.278)" fill="#a8b0c9"/></svg>