<svg xmlns="http://www.w3.org/2000/svg" width="17.997" height="18" viewBox="0 0 17.997 18"><path d="M16.677,20.25a7.571,7.571,0,0,1-3.536-1.205,22.986,22.986,0,0,1-5.553-4.154A21.088,21.088,0,0,1,3.418,9.34c-1.48-2.692-1.228-4.1-.946-4.706a3.758,3.758,0,0,1,1.473-1.58A7.083,7.083,0,0,1,5.1,2.443l.111-.049a1.075,1.075,0,0,1,.882-.081,2.581,2.581,0,0,1,.838.643,13.919,13.919,0,0,1,2.1,3.111,3.1,3.1,0,0,1,.411,1.274,2.015,2.015,0,0,1-.512,1.2c-.053.072-.105.141-.155.207-.306.4-.373.518-.329.725a7.62,7.62,0,0,0,1.856,2.753,7.31,7.31,0,0,0,2.721,1.811c.216.046.335-.023.749-.341.059-.045.121-.093.185-.139a2.024,2.024,0,0,1,1.216-.544h0a2.913,2.913,0,0,1,1.28.449,15.337,15.337,0,0,1,3.1,2.081,2.592,2.592,0,0,1,.645.836,1.083,1.083,0,0,1-.081.884c-.015.033-.031.07-.049.11a7.091,7.091,0,0,1-.614,1.149,3.755,3.755,0,0,1-1.582,1.47,2.708,2.708,0,0,1-1.188.261Z" transform="translate(-2.257 -2.25)" fill="#222d32"/></svg>