<svg xmlns="http://www.w3.org/2000/svg" width="36.994" height="34.351" viewBox="0 0 36.994 34.351"><g transform="translate(-3.375 -3.373)"><path d="M38.8,6.012a1.321,1.321,0,0,1,0,1.871l-18.5,18.5a1.321,1.321,0,0,1-1.871,0l-7.927-7.927a1.323,1.323,0,1,1,1.871-1.871l6.992,6.993L36.934,6.011a1.321,1.321,0,0,1,1.871,0Z" transform="translate(1.177 0.392)" fill="#1ab156" fill-rule="evenodd"/><path d="M20.55,6.018A14.532,14.532,0,1,0,35.082,20.55a1.321,1.321,0,1,1,2.642,0A17.175,17.175,0,1,1,29.137,5.674a1.321,1.321,0,1,1-1.321,2.285A14.458,14.458,0,0,0,20.55,6.018Z" transform="translate(0 0)" fill="#1ab156" fill-rule="evenodd"/></g></svg>