<svg xmlns="http://www.w3.org/2000/svg" width="20" height="17.706" viewBox="0 0 20 17.706"><g transform="translate(-3 -3)"><path d="M5.694,6.818H4.6L3,5.2,4.093,4.124,5.156,5.171,7.326,3,8.42,4.093,5.694,6.818ZM10.683,4.54H23v1.54H10.683V4.54Zm0,4.619H23V10.7H10.683V9.159ZM23,13.778H10.683v1.54H23ZM10.683,18.4H23v1.54H10.683ZM4.6,11.437H5.694L8.42,8.712,7.326,7.634,5.156,9.805,4.093,8.743,3,9.836l1.6,1.6Zm1.093,4.634H4.6L3,14.47l1.093-1.093L5.156,14.44l2.171-2.186L8.42,13.346,5.694,16.072ZM4.6,20.706H5.694L8.42,17.981,7.326,16.888,5.156,19.074,4.093,18.012,3,19.089l1.6,1.617Z" fill="#a8b0c9" fill-rule="evenodd"/></g></svg>