<svg xmlns="http://www.w3.org/2000/svg" width="36" height="36" viewBox="0 0 36 36"><path d="M30.094,14.2a1.46,1.46,0,0,0-.422-1.078l-2.133-2.109a1.473,1.473,0,0,0-2.11,0l-9.562,9.539-5.3-5.3a1.473,1.473,0,0,0-2.11,0L6.327,17.367A1.46,1.46,0,0,0,5.9,18.445,1.431,1.431,0,0,0,6.327,19.5l8.484,8.484a1.442,1.442,0,0,0,1.055.445,1.468,1.468,0,0,0,1.078-.445L29.671,15.257a1.431,1.431,0,0,0,.422-1.055ZM36,18a17.609,17.609,0,0,1-2.414,9.035,17.917,17.917,0,0,1-6.551,6.551A17.609,17.609,0,0,1,18,36a17.609,17.609,0,0,1-9.035-2.414,17.917,17.917,0,0,1-6.551-6.551A17.609,17.609,0,0,1,0,18,17.609,17.609,0,0,1,2.414,8.965,17.917,17.917,0,0,1,8.965,2.414,17.609,17.609,0,0,1,18,0a17.609,17.609,0,0,1,9.035,2.414,17.917,17.917,0,0,1,6.551,6.551A17.609,17.609,0,0,1,36,18Z" fill="#1ab156"/></svg>