<svg xmlns="http://www.w3.org/2000/svg" width="18" height="18" viewBox="0 0 18 18"><path d="M18,9.036a8.816,8.816,0,0,1-1.206,4.518,8.936,8.936,0,0,1-3.276,3.276A8.816,8.816,0,0,1,9,18.036,8.816,8.816,0,0,1,4.482,16.83a8.936,8.936,0,0,1-3.276-3.276A8.816,8.816,0,0,1,0,9.036,8.816,8.816,0,0,1,1.206,4.518,8.936,8.936,0,0,1,4.482,1.242,8.816,8.816,0,0,1,9,.036a8.816,8.816,0,0,1,4.518,1.206,8.936,8.936,0,0,1,3.276,3.276A8.816,8.816,0,0,1,18,9.036Zm-2.106,0a6.639,6.639,0,0,0-2.025-4.869A6.639,6.639,0,0,0,9,2.142,6.667,6.667,0,0,0,4.932,3.474l.036.036A6.786,6.786,0,0,0,3.474,5l-.036-.036A6.667,6.667,0,0,0,2.106,9.036,6.639,6.639,0,0,0,4.131,13.9,6.639,6.639,0,0,0,9,15.93,6.667,6.667,0,0,0,13.068,14.6l-.036-.036a6.786,6.786,0,0,0,1.494-1.494l.036.036a6.667,6.667,0,0,0,1.332-4.068Zm-3.654,3.6a1.076,1.076,0,0,1-1.08,1.08.963.963,0,0,1-.756-.324l-2.16-2.16a1.55,1.55,0,0,1-.324-1.116V4.356a1.08,1.08,0,1,1,2.16,0v5.67l1.836,1.854a.963.963,0,0,1,.324.756Z" transform="translate(0 -0.036)" fill="#8aa4af"/></svg>