<svg xmlns="http://www.w3.org/2000/svg" width="89.5" height="68" viewBox="0 0 89.5 68"><g transform="translate(1.5)"><path d="M15.988,2.25c-5.1,0-9.238,3.725-9.238,8.315,0,7.391,9.238,17.553,9.238,17.553s9.238-10.162,9.238-17.553C25.227,5.975,21.089,2.25,15.988,2.25Zm0,12.934a3.7,3.7,0,1,1,3.7-3.7A3.7,3.7,0,0,1,15.988,15.184Z" transform="translate(-6.75 2.677)" fill="#2c3b41" stroke="#fff" stroke-width="3"/><circle cx="3" cy="3" r="3" transform="translate(6 11)" fill="#2c3b41"/><g transform="translate(-368 -386)"><path d="M0,0H78A10,10,0,0,1,88,10V25A10,10,0,0,1,78,35H10A10,10,0,0,1,0,25V0A0,0,0,0,1,0,0Z" transform="translate(368 419)" fill="#111" opacity="0.8"/><text transform="translate(381 442)" fill="#fff" font-size="14" font-family="SegoeUI, Segoe UI"><tspan x="0" y="0">Multidrop</tspan></text></g><path d="M15.988,2.25c-5.1,0-9.238,3.725-9.238,8.315,0,7.391,9.238,17.553,9.238,17.553s9.238-10.162,9.238-17.553C25.227,5.975,21.089,2.25,15.988,2.25Zm0,12.934a3.7,3.7,0,1,1,3.7-3.7A3.7,3.7,0,0,1,15.988,15.184Z" transform="translate(4.131 -2.25)" fill="#2c3b41"/></g></svg>