<svg xmlns="http://www.w3.org/2000/svg" width="30.858" height="33.025" viewBox="0 0 30.858 33.025"><g transform="translate(1.5)"><path d="M15.988,2.25c-5.1,0-9.238,3.725-9.238,8.315,0,7.391,9.238,17.553,9.238,17.553s9.238-10.162,9.238-17.553C25.227,5.975,21.089,2.25,15.988,2.25Zm0,12.934a3.7,3.7,0,1,1,3.7-3.7A3.7,3.7,0,0,1,15.988,15.184Z" transform="translate(4.131 -2.25)" fill="#2c3b41"/><path d="M15.988,2.25c-5.1,0-9.238,3.725-9.238,8.315,0,7.391,9.238,17.553,9.238,17.553s9.238-10.162,9.238-17.553C25.227,5.975,21.089,2.25,15.988,2.25Zm0,12.934a3.7,3.7,0,1,1,3.7-3.7A3.7,3.7,0,0,1,15.988,15.184Z" transform="translate(-6.75 2.677)" fill="#2c3b41" stroke="#fff" stroke-width="3"/><circle cx="3" cy="3" r="3" transform="translate(6 11)" fill="#2c3b41"/></g></svg>