<svg xmlns="http://www.w3.org/2000/svg" width="9" height="15" viewBox="0 0 9 15"><path d="M16.5,12A1.5,1.5,0,1,1,15,10.5,1.5,1.5,0,0,1,16.5,12Z" transform="translate(-13.5 -10.5)" fill="#d9c0b7"/><path d="M16.5,24A1.5,1.5,0,1,1,15,22.5,1.5,1.5,0,0,1,16.5,24Z" transform="translate(-13.5 -10.5)" fill="#d9c0b7"/><path d="M22.5,12A1.5,1.5,0,1,1,21,10.5,1.5,1.5,0,0,1,22.5,12Z" transform="translate(-13.5 -10.5)" fill="#d9c0b7"/><path d="M22.5,24A1.5,1.5,0,1,1,21,22.5,1.5,1.5,0,0,1,22.5,24Z" transform="translate(-13.5 -10.5)" fill="#d9c0b7"/><path d="M22.5,18A1.5,1.5,0,1,1,21,16.5,1.5,1.5,0,0,1,22.5,18Z" transform="translate(-13.5 -10.5)" fill="#d9c0b7"/><path d="M16.5,18A1.5,1.5,0,1,1,15,16.5,1.5,1.5,0,0,1,16.5,18Z" transform="translate(-13.5 -10.5)" fill="#d9c0b7"/></svg>