<svg xmlns="http://www.w3.org/2000/svg" width="23.949" height="24" viewBox="0 0 23.949 24"><path d="M11.974,8.035a4.359,4.359,0,0,1,4.366,4.34,4.175,4.175,0,0,1-1.277,3.064,4.209,4.209,0,0,1-3.089,1.277,4.209,4.209,0,0,1-3.089-1.277,4.315,4.315,0,0,1,0-6.128A4.206,4.206,0,0,1,11.974,8.035ZM21.7,11.3h2.247v2.145H21.7a9.423,9.423,0,0,1-2.783,5.847,9.66,9.66,0,0,1-5.847,2.834v2.247h-2.2V22.128a9.737,9.737,0,0,1-5.821-2.834,9.363,9.363,0,0,1-2.809-5.847H0V11.3H2.247A9.365,9.365,0,0,1,5.055,5.456a9.731,9.731,0,0,1,5.821-2.834V.375h2.2V2.622a9.668,9.668,0,0,1,5.847,2.834A9.416,9.416,0,0,1,21.7,11.3ZM12,19.984a7.335,7.335,0,0,0,5.387-2.221,7.338,7.338,0,0,0,2.222-5.388,7.33,7.33,0,0,0-2.221-5.387A7.343,7.343,0,0,0,12,4.766,7.414,7.414,0,0,0,6.587,6.987,7.3,7.3,0,0,0,4.34,12.375a7.294,7.294,0,0,0,2.247,5.387A7.42,7.42,0,0,0,12,19.984Z" transform="translate(0 -0.375)" fill="#1e73c8"/></svg>