<svg xmlns="http://www.w3.org/2000/svg" width="20" height="19.999" viewBox="0 0 20 19.999"><path d="M18.758,20h-10a1.191,1.191,0,0,1-.888-.371,1.218,1.218,0,0,1-.361-.879v-2.5a1.218,1.218,0,0,1,.361-.879A1.191,1.191,0,0,1,8.758,15h10a1.268,1.268,0,0,1,1.25,1.25v2.5a1.191,1.191,0,0,1-.371.888,1.218,1.218,0,0,1-.879.361Zm0-7.5h-10a1.234,1.234,0,0,1-1.25-1.25V8.75A1.234,1.234,0,0,1,8.758,7.5h10a1.218,1.218,0,0,1,.879.361,1.191,1.191,0,0,1,.371.888v2.5a1.191,1.191,0,0,1-.371.888,1.218,1.218,0,0,1-.879.361Zm0-7.5h-10A1.191,1.191,0,0,1,7.87,4.63a1.218,1.218,0,0,1-.361-.879v-2.5A1.207,1.207,0,0,1,7.87.362,1.207,1.207,0,0,1,8.758,0h10a1.218,1.218,0,0,1,.879.361,1.191,1.191,0,0,1,.371.888v2.5a1.2,1.2,0,0,1-.371.879A1.2,1.2,0,0,1,18.758,5Zm-15,15h-2.5a1.2,1.2,0,0,1-.879-.371,1.2,1.2,0,0,1-.371-.879v-2.5a1.2,1.2,0,0,1,.371-.879A1.2,1.2,0,0,1,1.258,15h2.5a1.2,1.2,0,0,1,.879.371,1.2,1.2,0,0,1,.371.879v2.5A1.234,1.234,0,0,1,3.759,20Zm0-7.5h-2.5a1.218,1.218,0,0,1-.879-.361,1.191,1.191,0,0,1-.371-.888V8.75a1.191,1.191,0,0,1,.371-.888A1.218,1.218,0,0,1,1.258,7.5h2.5a1.218,1.218,0,0,1,.879.361,1.191,1.191,0,0,1,.371.888v2.5a1.234,1.234,0,0,1-1.25,1.25Zm0-7.5h-2.5A1.2,1.2,0,0,1,.379,4.63,1.2,1.2,0,0,1,.008,3.75v-2.5A1.191,1.191,0,0,1,.379.362,1.218,1.218,0,0,1,1.258,0h2.5a1.218,1.218,0,0,1,.879.361,1.191,1.191,0,0,1,.371.888v2.5a1.218,1.218,0,0,1-.361.879A1.191,1.191,0,0,1,3.759,5Z" transform="translate(-0.008 -0.001)" fill="#a8b0c9"/></svg>