<svg xmlns="http://www.w3.org/2000/svg" width="109" height="62.254" viewBox="0 0 109 62.254"><path d="M12.816,5.688H24.695a1.188,1.188,0,1,1,0,2.376H12.816a1.188,1.188,0,1,1,0-2.376Zm0,8.316H24.695a1.188,1.188,0,1,1,0,2.376H12.816a1.188,1.188,0,0,1,0-2.376Zm0,8.316H24.695a1.188,1.188,0,1,1,0,2.376H12.816a1.188,1.188,0,1,1,0-2.376ZM6.876,9.252A2.376,2.376,0,1,1,9.252,6.876,2.376,2.376,0,0,1,6.876,9.252Zm0,8.316a2.376,2.376,0,1,1,2.376-2.376A2.376,2.376,0,0,1,6.876,17.567Zm0,8.316a2.376,2.376,0,1,1,2.376-2.376A2.376,2.376,0,0,1,6.876,25.883Z" transform="translate(-4.191 -4.5)" fill-rule="evenodd"/><g transform="translate(-778 -916.746)"><path d="M0,0H91.5A17.5,17.5,0,0,1,109,17.5v0A17.5,17.5,0,0,1,91.5,35h-74A17.5,17.5,0,0,1,0,17.5V0A0,0,0,0,1,0,0Z" transform="translate(778 944)" fill="#17203f" opacity="0.8"/><text transform="translate(793 967)" fill="#fff" font-size="14" font-family="ProximaNova-Regular, Proxima Nova" letter-spacing="0.02em"><tspan x="0" y="0">View Details</tspan></text></g></svg>