<svg xmlns="http://www.w3.org/2000/svg" width="21.383" height="21.383" viewBox="0 0 21.383 21.383"><path d="M12.816,5.688H24.695a1.188,1.188,0,1,1,0,2.376H12.816a1.188,1.188,0,1,1,0-2.376Zm0,8.316H24.695a1.188,1.188,0,1,1,0,2.376H12.816a1.188,1.188,0,0,1,0-2.376Zm0,8.316H24.695a1.188,1.188,0,1,1,0,2.376H12.816a1.188,1.188,0,1,1,0-2.376ZM6.876,9.252A2.376,2.376,0,1,1,9.252,6.876,2.376,2.376,0,0,1,6.876,9.252Zm0,8.316a2.376,2.376,0,1,1,2.376-2.376A2.376,2.376,0,0,1,6.876,17.567Zm0,8.316a2.376,2.376,0,1,1,2.376-2.376A2.376,2.376,0,0,1,6.876,25.883Z" transform="translate(-4.5 -4.5)" fill-rule="evenodd"/></svg>