<svg xmlns="http://www.w3.org/2000/svg" width="20.451" height="24" viewBox="0 0 20.451 24"><path d="M10.225,24.25a2.305,2.305,0,0,1-1.69-.7,2.273,2.273,0,0,1-.7-1.662h4.789a2.271,2.271,0,0,1-.7,1.662,2.309,2.309,0,0,1-1.69.7Zm7.8-7.211,2.422,2.422v1.183H0V19.461l2.422-2.422V10.447a7.579,7.579,0,0,1,1.69-4.873A7.618,7.618,0,0,1,8.395,2.841V2.053A1.706,1.706,0,0,1,8.93.757a1.816,1.816,0,0,1,1.3-.507,1.72,1.72,0,0,1,1.268.507A1.755,1.755,0,0,1,12,2.053v.789a7.632,7.632,0,0,1,4.338,2.733,7.579,7.579,0,0,1,1.69,4.873v6.592Z" transform="translate(0 -0.25)" fill="#dfe5e8"/></svg>