<svg xmlns="http://www.w3.org/2000/svg" xmlns:xlink="http://www.w3.org/1999/xlink" width="384" height="148" viewBox="0 0 384 148"><defs><filter id="a" x="0" y="21" width="384" height="127" filterUnits="userSpaceOnUse"><feOffset dy="3" input="SourceAlpha"/><feGaussianBlur stdDeviation="3" result="b"/><feFlood flood-opacity="0.161"/><feComposite operator="in" in2="b"/><feComposite in="SourceGraphic"/></filter></defs><g transform="translate(8.674)"><path d="M8,19.373a1.787,1.787,0,0,1-1.322-.561,1.828,1.828,0,0,1-.551-1.324H9.873a1.826,1.826,0,0,1-.551,1.324A1.79,1.79,0,0,1,8,19.373Zm6.1-5.746,1.9,1.93V16.5H0v-.943l1.9-1.93V8.375A6.109,6.109,0,0,1,3.217,4.492a5.949,5.949,0,0,1,3.35-2.177V1.687A1.372,1.372,0,0,1,6.987.654,1.407,1.407,0,0,1,8,.25a1.333,1.333,0,0,1,.992.4,1.412,1.412,0,0,1,.4,1.033v.629a5.959,5.959,0,0,1,3.394,2.177,6.109,6.109,0,0,1,1.322,3.883v5.252Z" transform="translate(0 -0.25)" fill="#b9d2dc"/><g transform="translate(-356.674 -394)"><g transform="matrix(1, 0, 0, 1, 348, 394)" filter="url(#a)"><g transform="translate(9 27)" fill="#fff" stroke="#b9d2dc" stroke-width="1"><path d="M0,0H361a5,5,0,0,1,5,5v99a5,5,0,0,1-5,5H5a5,5,0,0,1-5-5V0A0,0,0,0,1,0,0Z" stroke="none"/><path d="M1,.5H361A4.5,4.5,0,0,1,365.5,5v99a4.5,4.5,0,0,1-4.5,4.5H5A4.5,4.5,0,0,1,.5,104V1A.5.5,0,0,1,1,.5Z" fill="none"/></g></g><text transform="translate(371 447)" fill="#2c3b41" font-size="15" font-family="SegoeUI-Bold, Segoe UI" font-weight="700"><tspan x="0" y="0">Notification Logs</tspan></text><text transform="translate(371 463)" fill="#2c3b41" font-size="15" font-family="SegoeUI, Segoe UI"><tspan x="0" y="16">AM Notification Sent on 12 Sept 2021 14:25:32</tspan><tspan x="0" y="46">AM Notification Sent on 13 Sept 2021 10:14:30</tspan></text></g></g></svg>