<svg xmlns="http://www.w3.org/2000/svg" xmlns:xlink="http://www.w3.org/1999/xlink" width="621.826" height="310.623" viewBox="0 0 621.826 310.623"><defs><filter id="a" x="161.826" y="0" width="460" height="169" filterUnits="userSpaceOnUse"><feOffset input="SourceAlpha"/><feGaussianBlur stdDeviation="7.5" result="b"/><feFlood flood-opacity="0.102"/><feComposite operator="in" in2="b"/><feComposite in="SourceGraphic"/></filter><filter id="c" x="161.826" y="0" width="460" height="169" filterUnits="userSpaceOnUse"><feOffset input="SourceAlpha"/><feGaussianBlur stdDeviation="7.5" result="d"/><feFlood flood-opacity="0.102"/><feComposite operator="in" in2="d"/><feComposite in="SourceGraphic"/></filter></defs><g transform="translate(0 22.5)"><path d="M8,19.373a1.787,1.787,0,0,1-1.322-.561,1.828,1.828,0,0,1-.551-1.324H9.873a1.826,1.826,0,0,1-.551,1.324A1.79,1.79,0,0,1,8,19.373Zm6.1-5.746,1.9,1.93V16.5H0v-.943l1.9-1.93V8.375A6.109,6.109,0,0,1,3.217,4.492a5.949,5.949,0,0,1,3.35-2.177V1.687A1.372,1.372,0,0,1,6.987.654,1.407,1.407,0,0,1,8,.25a1.333,1.333,0,0,1,.992.4,1.412,1.412,0,0,1,.4,1.033v.629a5.959,5.959,0,0,1,3.394,2.177,6.109,6.109,0,0,1,1.322,3.883v5.252Z" transform="translate(0 268.75)" fill="#b9d2dc"/><g transform="translate(184.326)" opacity="0"><g transform="matrix(1, 0, 0, 1, -184.33, -22.5)" filter="url(#a)"><g transform="translate(184.33 22.5)" fill="#3eac6a"><path d="M 405 123.5 L 10 123.5 C 4.761684417724609 123.5 0.5 119.2383193969727 0.5 114 L 0.5 10 C 0.5 4.761684417724609 4.761684417724609 0.5 10 0.5 L 405 0.5 C 410.2383117675781 0.5 414.5 4.761684417724609 414.5 10 L 414.5 114 C 414.5 119.2383193969727 410.2383117675781 123.5 405 123.5 Z" stroke="none"/><path d="M 10 1 C 5.037353515625 1 1 5.037368774414062 1 10 L 1 114 C 1 118.9626312255859 5.037353515625 123 10 123 L 405 123 C 409.962646484375 123 414 118.9626312255859 414 114 L 414 10 C 414 5.037368774414062 409.962646484375 1 405 1 L 10 1 M 10 0 L 405 0 C 410.5228271484375 0 415 4.477157592773438 415 10 L 415 114 C 415 119.5228424072266 410.5228271484375 124 405 124 L 10 124 C 4.4771728515625 124 0 119.5228424072266 0 114 L 0 10 C 0 4.477157592773438 4.4771728515625 0 10 0 Z" stroke="none" fill="#1ab156"/></g></g><g transform="translate(20 20)"><g transform="translate(0 1)"><path d="M30.28,5.9a.929.929,0,0,1,0,1.315l-13,13a.929.929,0,0,1-1.315,0L10.4,14.639a.93.93,0,0,1,1.315-1.315l4.914,4.915L28.967,5.9a.929.929,0,0,1,1.315,0Z" transform="translate(-4.553 -3.766)" fill="#fff" fill-rule="evenodd"/><path d="M15.446,5.232A10.214,10.214,0,1,0,25.659,15.445a.929.929,0,1,1,1.857,0A12.071,12.071,0,1,1,21.481,4.99.929.929,0,1,1,20.552,6.6,10.162,10.162,0,0,0,15.446,5.232Z" transform="translate(-3.375 -3.373)" fill="#fff" fill-rule="evenodd"/></g><text transform="translate(33.006 22)" fill="#fff" font-size="20" font-family="SegoeUI-Bold, Segoe UI" font-weight="700"><tspan x="0" y="0">AM Notification Sent</tspan></text></g><text transform="translate(20 61)" fill="#fff" font-size="16" font-family="SegoeUI, Segoe UI"><tspan x="0" y="17">Update notification sent to </tspan><tspan y="17" font-family="SegoeUI-Bold, Segoe UI" font-weight="700">Brian Rawley</tspan><tspan y="17"> </tspan><tspan x="0" y="38">on his registered mobile and email address.</tspan></text><g transform="translate(380.055 16.828)"><path d="M8.766,7.118A1.166,1.166,0,1,0,7.118,8.767L13.85,15.5,7.117,22.23a1.166,1.166,0,1,0,1.648,1.648L15.5,17.147l6.732,6.732a1.166,1.166,0,1,0,1.648-1.648L17.147,15.5l6.732-6.732a1.166,1.166,0,1,0-1.648-1.648L15.5,13.85,8.766,7.117Z" transform="translate(-6.776 -6.777)" fill="#008133"/></g></g><g transform="translate(-1135.674 -583)"><g transform="matrix(1, 0, 0, 1, 1135.67, 560.5)" filter="url(#c)"><g transform="translate(184.33 22.5)" fill="#3eac6a"><path d="M 405 123.5 L 10 123.5 C 4.761684417724609 123.5 0.5 119.2383193969727 0.5 114 L 0.5 10 C 0.5 4.761684417724609 4.761684417724609 0.5 10 0.5 L 405 0.5 C 410.2383117675781 0.5 414.5 4.761684417724609 414.5 10 L 414.5 114 C 414.5 119.2383193969727 410.2383117675781 123.5 405 123.5 Z" stroke="none"/><path d="M 10 1 C 5.037353515625 1 1 5.037368774414062 1 10 L 1 114 C 1 118.9626312255859 5.037353515625 123 10 123 L 405 123 C 409.962646484375 123 414 118.9626312255859 414 114 L 414 10 C 414 5.037368774414062 409.962646484375 1 405 1 L 10 1 M 10 0 L 405 0 C 410.5228271484375 0 415 4.477157592773438 415 10 L 415 114 C 415 119.5228424072266 410.5228271484375 124 405 124 L 10 124 C 4.4771728515625 124 0 119.5228424072266 0 114 L 0 10 C 0 4.477157592773438 4.4771728515625 0 10 0 Z" stroke="none" fill="#1ab156"/></g></g><g transform="translate(336.006 243)"><g transform="translate(1000.619 357.627)"><path d="M30.28,5.9a.929.929,0,0,1,0,1.315l-13,13a.929.929,0,0,1-1.315,0L10.4,14.639a.93.93,0,0,1,1.315-1.315l4.914,4.915L28.967,5.9a.929.929,0,0,1,1.315,0Z" transform="translate(-1.179 -0.393)" fill="#fff" fill-rule="evenodd"/><path d="M15.446,5.232A10.214,10.214,0,1,0,25.659,15.445a.929.929,0,1,1,1.857,0A12.071,12.071,0,1,1,21.481,4.99.929.929,0,1,1,20.552,6.6,10.162,10.162,0,0,0,15.446,5.232Z" transform="translate(0 0)" fill="#fff" fill-rule="evenodd"/></g><text transform="translate(1037 382)" fill="#fff" font-size="20" font-family="SegoeUI-Bold, Segoe UI" font-weight="700"><tspan x="0" y="0">AM Notification Sent</tspan></text></g><text transform="translate(1340 644)" fill="#fff" font-size="16" font-family="SegoeUI, Segoe UI"><tspan x="0" y="17">Update notification sent to </tspan><tspan y="17" font-family="SegoeUI-Bold, Segoe UI" font-weight="700">Brian Rawley</tspan><tspan y="17"> </tspan><tspan x="0" y="38">on his registered mobile and email address.</tspan></text><g transform="translate(1693.279 593.052)"><path d="M8.766,7.118A1.166,1.166,0,1,0,7.118,8.767L13.85,15.5,7.117,22.23a1.166,1.166,0,1,0,1.648,1.648L15.5,17.147l6.732,6.732a1.166,1.166,0,1,0,1.648-1.648L17.147,15.5l6.732-6.732a1.166,1.166,0,1,0-1.648-1.648L15.5,13.85,8.766,7.117Z" fill="#008133"/></g></g></g></svg>