<svg xmlns="http://www.w3.org/2000/svg" width="156" height="66" viewBox="0 0 156 66"><path d="M5.272,18.749v-9.4H21.015v4.1a7.747,7.747,0,0,1,1.572,0V6.789a2.348,2.348,0,0,0-2.344-2.344h-1.7V3.193a.705.705,0,0,0-.693-.693H16.113a.705.705,0,0,0-.693.693V4.445H10.866V3.193a.705.705,0,0,0-.693-.693H8.442a.705.705,0,0,0-.693.693V4.445h-1.7A2.348,2.348,0,0,0,3.7,6.789v11.96a2.348,2.348,0,0,0,2.344,2.344h7.725a7.961,7.961,0,0,1,.213-1.572H6.071A.763.763,0,0,1,5.272,18.749Z" transform="translate(-3.7 -2.5)" fill="#2c3b41"/><path d="M50.433,35.5a.534.534,0,0,0-.533.533v1.412a.534.534,0,0,0,.533.533H52.4a.534.534,0,0,0,.533-.533V36.033A.534.534,0,0,0,52.4,35.5Z" transform="translate(-37.593 -26.709)" fill="#2c3b41"/><path d="M36,35.5H34.033a.534.534,0,0,0-.533.533v1.412a.534.534,0,0,0,.533.533H36a.534.534,0,0,0,.533-.533V36.033A.552.552,0,0,0,36,35.5Z" transform="translate(-25.562 -26.709)" fill="#2c3b41"/><path d="M36,50H34.033a.534.534,0,0,0-.533.533v1.412a.534.534,0,0,0,.533.533H36a.534.534,0,0,0,.533-.533V50.533A.552.552,0,0,0,36,50Z" transform="translate(-25.562 -37.347)" fill="#2c3b41"/><path d="M20.037,35.933A.534.534,0,0,0,19.5,35.4H17.533a.534.534,0,0,0-.533.533v1.412a.534.534,0,0,0,.533.533H19.5a.534.534,0,0,0,.533-.533Z" transform="translate(-13.457 -26.636)" fill="#2c3b41"/><path d="M19.6,50H17.633a.534.534,0,0,0-.533.533v1.412a.534.534,0,0,0,.533.533H19.6a.534.534,0,0,0,.533-.533V50.533A.552.552,0,0,0,19.6,50Z" transform="translate(-13.531 -37.347)" fill="#2c3b41"/><path d="M69.173,60.2a.773.773,0,0,0-.772.773v2.744a.782.782,0,0,0,.479.719l1.652.719a.676.676,0,0,0,.32.053.811.811,0,0,0,.719-.479.8.8,0,0,0-.4-1.039L70,63.183V60.946A.837.837,0,0,0,69.173,60.2Z" transform="translate(-51.165 -44.83)" fill="#2c3b41"/><path d="M56.474,53.7l3.356.693a.383.383,0,0,0,.4-.133.446.446,0,0,0,.107-.4L59.643,50.5a.552.552,0,0,0-.293-.346.461.461,0,0,0-.453.107l-.772.773a6.4,6.4,0,0,0-8.9.133,6.4,6.4,0,0,0,9.057,9.057,6.224,6.224,0,0,0,1.785-3.463.784.784,0,0,0-1.545-.266A4.778,4.778,0,0,1,57.166,59.1a4.841,4.841,0,1,1-.16-7.006l-.773.773a.461.461,0,0,0-.107.453A.457.457,0,0,0,56.474,53.7Z" transform="translate(-35.723 -36.833)" fill="#2c3b41"/><g transform="translate(-368 -388)"><path d="M0,0H146a10,10,0,0,1,10,10V25a10,10,0,0,1-10,10H10A10,10,0,0,1,0,25V0A0,0,0,0,1,0,0Z" transform="translate(368 419)" fill="#111" opacity="0.8"/><text transform="translate(381 442)" fill="#fff" font-size="14" font-family="SegoeUI, Segoe UI"><tspan x="0" y="0">Reschedule Delivery</tspan></text></g></svg>