<svg xmlns="http://www.w3.org/2000/svg" xmlns:xlink="http://www.w3.org/1999/xlink" width="200" height="197.5" viewBox="0 0 200 197.5"><defs><filter id="a" x="0" y="14.5" width="200" height="183" filterUnits="userSpaceOnUse"><feOffset input="SourceAlpha"/><feGaussianBlur stdDeviation="7.5" result="b"/><feFlood flood-opacity="0.161"/><feComposite operator="in" in2="b"/><feComposite in="SourceGraphic"/></filter></defs><g transform="translate(22.5)"><path d="M19.415,8.583A1.833,1.833,0,1,1,17.583,6.75,1.833,1.833,0,0,1,19.415,8.583Z" transform="translate(134.25 -6.75)"/><path d="M19.415,17.583a1.833,1.833,0,1,1-1.833-1.833A1.833,1.833,0,0,1,19.415,17.583Z" transform="translate(134.25 -8.419)"/><path d="M19.415,26.583a1.833,1.833,0,1,1-1.833-1.833A1.833,1.833,0,0,1,19.415,26.583Z" transform="translate(134.25 -10.088)"/><g transform="translate(-1600 -396)"><g transform="matrix(1, 0, 0, 1, 1577.5, 396)" filter="url(#a)"><rect width="155" height="138" rx="5" transform="translate(22.5 37)" fill="#fff"/></g><g transform="translate(21)"><text transform="translate(1617 469)" fill="#222d32" font-size="16" font-family="SegoeUI, Segoe UI"><tspan x="0" y="0">Edit Order</tspan></text><g transform="translate(1589.75 453.75)"><path d="M7.923,17.59l-2.83-2.83,7.823-7.823,2.83,2.83Z" transform="translate(-1.579 -2.604)"/><path d="M27.792,4.012l-1.5-1.5a.982.982,0,0,0-1.384.058L23.492,3.979l2.83,2.83L27.735,5.4A.982.982,0,0,0,27.792,4.012Z" transform="translate(-11.801 0)"/><path d="M3.25,25.541l-1,3.648,3.648-1Z" transform="translate(0 -12.939)"/></g></g><g transform="translate(21 1)"><text transform="translate(1617 510)" fill="#222d32" font-size="16" font-family="SegoeUI, Segoe UI"><tspan x="0" y="0">Track Order</tspan></text><g transform="translate(1587.5 492.5)"><path d="M15.833,18.167A2.333,2.333,0,1,0,13.5,15.833,2.333,2.333,0,0,0,15.833,18.167Z" transform="translate(-4.333 -4.333)"/><path d="M11.5,4.5a.778.778,0,0,1,.778.778V6.11a5.448,5.448,0,0,1,4.612,4.612h.832a.778.778,0,1,1,0,1.556H16.89a5.448,5.448,0,0,1-4.612,4.612v.832a.778.778,0,1,1-1.556,0V16.89A5.448,5.448,0,0,1,6.11,12.278H5.278a.778.778,0,1,1,0-1.556H6.11A5.449,5.449,0,0,1,10.722,6.11V5.278A.778.778,0,0,1,11.5,4.5Zm-3.889,7A3.889,3.889,0,1,1,11.5,15.389,3.889,3.889,0,0,1,7.611,11.5Z" fill-rule="evenodd"/></g></g><g transform="translate(20)"><text transform="translate(1617 552)" fill="#f64e4e" font-size="16" font-family="SegoeUI, Segoe UI"><tspan x="0" y="0">Cancel Order</tspan></text><path d="M7.762,0V1.223H3.138V3.474H16.349V1.223H11.725V0ZM3.847,5.187V16H15.639V5.187Z" transform="translate(1589.862 538)" fill="#f64e4e"/></g><line x2="155" transform="translate(1600 483.5)" fill="none" stroke="#e9f0f0" stroke-width="1"/><line x2="155" transform="translate(1600 524.5)" fill="none" stroke="#e9f0f0" stroke-width="1"/></g></g></svg>