<svg xmlns="http://www.w3.org/2000/svg" width="20" height="20.001" viewBox="0 0 20 20.001"><g transform="translate(-0.002 0)"><path d="M12.586,1.088a3.613,3.613,0,0,0-5.168,0l-.778.8L5.528,1.871A3.613,3.613,0,0,0,1.872,5.526l.013,1.113-.8.778a3.613,3.613,0,0,0,0,5.168l.8.778-.014,1.113A3.613,3.613,0,0,0,5.528,18.13l1.113-.013.778.8a3.613,3.613,0,0,0,5.168,0l.778-.8,1.113.014a3.613,3.613,0,0,0,3.655-3.655l-.013-1.113.8-.778a3.613,3.613,0,0,0,0-5.168l-.8-.778.014-1.113a3.613,3.613,0,0,0-3.655-3.655l-1.113.013-.778-.8ZM10,5A1.131,1.131,0,0,0,8.876,6.244l.438,4.385a.692.692,0,0,0,1.375,0l.438-4.385A1.131,1.131,0,0,0,10,5Zm0,7.5a1.25,1.25,0,1,0,1.25,1.25A1.25,1.25,0,0,0,10,12.5Z" transform="translate(0)" fill="#a8b0c9" fill-rule="evenodd"/></g></svg>