<svg xmlns="http://www.w3.org/2000/svg" width="27.999" height="28" viewBox="0 0 27.999 28"><path d="M15.531,0V15.531H12.468V0Zm7.51,3.354A13.4,13.4,0,0,1,28,14a13.5,13.5,0,0,1-4.083,9.916A13.5,13.5,0,0,1,14,28a13.5,13.5,0,0,1-9.916-4.083A13.5,13.5,0,0,1,0,14,13.4,13.4,0,0,1,4.958,3.354L7.146,5.542A10.432,10.432,0,0,0,3.136,14a10.475,10.475,0,0,0,3.172,7.693A10.474,10.474,0,0,0,14,24.864a10.477,10.477,0,0,0,7.693-3.172A10.471,10.471,0,0,0,24.864,14a10.228,10.228,0,0,0-4.01-8.385Z" fill="#f64e4e"/></svg>