<svg xmlns="http://www.w3.org/2000/svg" width="21.424" height="25.709" viewBox="0 0 21.424 25.709"><path d="M20.178,12.5a1.425,1.425,0,0,0-1.428,1.428V36.781a1.536,1.536,0,0,0,1.428,1.428H33.033a1.536,1.536,0,0,0,1.428-1.428V29.639h.714a.7.7,0,0,1,.714.714V33.21a1.894,1.894,0,0,0,2.142,2.142,1.894,1.894,0,0,0,2.142-2.142V25.355c0-1.428-2.857-2.857-2.857-4.285V16.785H35.889l-1.428-1.428V13.928A1.425,1.425,0,0,0,33.033,12.5Zm1.428,2.857h10V21.07h-10Zm12.855,4.285h1.428v2.142c0,1.428,2.857,2.857,2.857,4.285V33.21a.714.714,0,1,1-1.428,0V29.639a1.536,1.536,0,0,0-1.428-1.428H34.461Z" transform="translate(-18.75 -12.5)" fill="#2c3b41"/></svg>