<svg xmlns="http://www.w3.org/2000/svg" xmlns:xlink="http://www.w3.org/1999/xlink" width="266" height="201.5" viewBox="0 0 266 201.5"><defs><filter id="a" x="0" y="48.5" width="266" height="153" filterUnits="userSpaceOnUse"><feOffset dy="15" input="SourceAlpha"/><feGaussianBlur stdDeviation="7.5" result="b"/><feFlood flood-opacity="0.051"/><feComposite operator="in" in2="b"/><feComposite in="SourceGraphic"/></filter></defs><g transform="translate(22.5)"><path d="M28,32H4a3.856,3.856,0,0,1-2.828-1.172A3.849,3.849,0,0,1,0,28V23q0-1.031.891-6.563T3.016,5.453Q4.251,0,5,0h9V8H8.844a.773.773,0,0,0-.765.625.891.891,0,0,0,.14.969l7,6.062a1.094,1.094,0,0,0,1.593,0L23.78,9.594a.889.889,0,0,0,.14-.969A.773.773,0,0,0,23.156,8H18.031V0H27q.75,0,1.984,5.453t2.125,10.984Q32,21.968,32,23v5a4,4,0,0,1-4,4Zm2-8a1.949,1.949,0,0,0-.578-1.406A1.907,1.907,0,0,0,28,22H4a1.908,1.908,0,0,0-1.422.594A1.944,1.944,0,0,0,2,24v4a1.973,1.973,0,0,0,2,2H28a1.973,1.973,0,0,0,2-2ZM5.984,28A1.973,1.973,0,0,1,4,26.016a1.967,1.967,0,0,1,.578-1.422A1.888,1.888,0,0,1,5.984,24,2.027,2.027,0,0,1,8,26.016a1.888,1.888,0,0,1-.594,1.406A1.967,1.967,0,0,1,5.984,28Z" transform="translate(6)" fill="#a8b0c9"/><g transform="translate(-1476 -26)"><g transform="matrix(1, 0, 0, 1, 1453.5, 26)" filter="url(#a)"><rect width="221" height="108" rx="5" transform="translate(22.5 56)" fill="#fff"/></g><g transform="translate(60)"><g transform="translate(1427.375 93.75)"><path d="M15.91,11.25v7.895l3.428-3.428,1.212,1.212-5.5,5.5-5.5-5.5,1.212-1.212L14.2,19.145V11.25H6.268a.643.643,0,0,0-.643.643V27.75a.643.643,0,0,0,.643.643H23.839a.643.643,0,0,0,.643-.643V11.893a.643.643,0,0,0-.643-.643Z" transform="translate(0 -2.143)" fill="#a8b0c9"/><path d="M16.875,2.25h1.714V9.107H16.875Z" transform="translate(-2.679)" fill="#a8b0c9"/></g><text transform="translate(1461 115)" fill="#17203f" font-size="18" font-family="ProximaNova-Regular, Proxima Nova" letter-spacing="0.015em"><tspan x="0" y="0">Export Deliveries</tspan></text></g><g transform="translate(60 13)"><text transform="translate(1461 154)" fill="#17203f" font-size="18" font-family="ProximaNova-Regular, Proxima Nova" letter-spacing="0.015em"><tspan x="0" y="0">Backup Database</tspan></text><path d="M9.021,18A31.769,31.769,0,0,1,4.5,17.7a13.343,13.343,0,0,1-3.278-.817q-1.2-.519-1.2-1.134V13.5a.724.724,0,0,1,.106-.334,10.737,10.737,0,0,0,3.559,1.055,33.134,33.134,0,0,0,5.335.4,32.983,32.983,0,0,0,5.335-.4,10.769,10.769,0,0,0,3.559-1.055.724.724,0,0,1,.106.334v2.25q0,.615-1.2,1.134a13.343,13.343,0,0,1-3.278.817,31.769,31.769,0,0,1-4.517.3Zm0-4.5A31.769,31.769,0,0,1,4.5,13.2a13.325,13.325,0,0,1-3.278-.818q-1.2-.519-1.2-1.134V9a.724.724,0,0,1,.106-.334A10.737,10.737,0,0,0,3.686,9.72a33.134,33.134,0,0,0,5.335.4,32.983,32.983,0,0,0,5.335-.4,10.769,10.769,0,0,0,3.559-1.055A.724.724,0,0,1,18.022,9v2.25q0,.615-1.2,1.134a13.356,13.356,0,0,1-3.279.818,31.677,31.677,0,0,1-4.517.3Zm0-4.5A31.769,31.769,0,0,1,4.5,8.7a13.325,13.325,0,0,1-3.278-.818Q.021,7.365.021,6.75V4.5a.724.724,0,0,1,.106-.334A10.737,10.737,0,0,0,3.686,5.221a33.134,33.134,0,0,0,5.335.4,32.983,32.983,0,0,0,5.335-.4,10.769,10.769,0,0,0,3.559-1.055.724.724,0,0,1,.106.334V6.75q0,.615-1.2,1.134a13.343,13.343,0,0,1-3.279.817A31.775,31.775,0,0,1,9.021,9Zm0-4.5A31.769,31.769,0,0,1,4.5,4.2a13.325,13.325,0,0,1-3.278-.818Q.021,2.865.021,2.25t1.2-1.134A13.325,13.325,0,0,1,4.5.3,31.768,31.768,0,0,1,9.021,0a31.769,31.769,0,0,1,4.517.3,13.343,13.343,0,0,1,3.278.817q1.2.519,1.2,1.134t-1.2,1.134a13.343,13.343,0,0,1-3.278.817,31.769,31.769,0,0,1-4.517.3Z" transform="translate(1432.979 139)" fill="#a8b0c9"/></g><line x2="210" transform="translate(1483.5 136.5)" fill="none" stroke="#a8b0c9" stroke-width="1" opacity="0.5"/></g></g></svg>