<svg xmlns="http://www.w3.org/2000/svg" width="19.267" height="21.579" viewBox="0 0 19.267 21.579"><g transform="translate(-2.25 -2.25)"><path d="M20.912,6.477l-3.17-3.55a1.946,1.946,0,0,0-1.459-.678H5A2.932,2.932,0,0,0,2.25,5.333V20.746A2.932,2.932,0,0,0,5,23.829H18.765a2.932,2.932,0,0,0,2.752-3.083V8.112a2.444,2.444,0,0,0-.6-1.635ZM6.035,6.1H13.6a.367.367,0,0,1,.344.386V8.8a.367.367,0,0,1-.344.386H6.035A.367.367,0,0,1,5.691,8.8V6.489A.367.367,0,0,1,6.035,6.1Zm6.01,15.41a3.427,3.427,0,0,1-3.308-2.291,4.2,4.2,0,0,1,.714-4.283,3.175,3.175,0,0,1,3.824-.8,3.919,3.919,0,0,1,2.046,3.705,3.668,3.668,0,0,1-3.275,3.668Z" transform="translate(0 0)"/><path d="M19.249,23.687a2.312,2.312,0,1,1-2.312-2.312,2.312,2.312,0,0,1,2.312,2.312Z" transform="translate(-5.053 -6.023)"/></g></svg>