<svg xmlns="http://www.w3.org/2000/svg" width="21.509" height="24.09" viewBox="0 0 21.509 24.09"><path d="M23.083,6.969,19.545,3.006a2.173,2.173,0,0,0-1.629-.756H5.323A3.273,3.273,0,0,0,2.25,5.691V22.9A3.273,3.273,0,0,0,5.323,26.34H20.686A3.273,3.273,0,0,0,23.759,22.9V8.794a2.728,2.728,0,0,0-.675-1.825ZM6.475,6.552h8.45a.409.409,0,0,1,.384.431V9.563a.409.409,0,0,1-.384.431H6.475a.409.409,0,0,1-.384-.431V6.982a.409.409,0,0,1,.384-.431Zm6.709,17.2A3.826,3.826,0,0,1,9.491,21.2a4.688,4.688,0,0,1,.8-4.781,3.544,3.544,0,0,1,4.269-.893,4.374,4.374,0,0,1,2.284,4.136,4.1,4.1,0,0,1-3.656,4.1Z" transform="translate(-2.25 -2.25)" fill="#dfe5e8"/><path d="M19.787,23.956a2.581,2.581,0,1,1-2.581-2.581,2.581,2.581,0,0,1,2.581,2.581Z" transform="translate(-6.452 -6.749)" fill="#dfe5e8"/></svg>